<svg width="512" height="509" viewBox="0 0 512 509" fill="none" xmlns="http://www.w3.org/2000/svg">
<g clip-path="url(#clip0_30_590)">
<path d="M255.87 -0.000967719C191.184 -0.439058 128.734 23.6395 81.0852 67.3892C33.4369 111.139 4.12765 171.312 -0.944237 235.8C-6.01612 300.288 13.5258 364.303 53.7489 414.964C93.9719 465.625 151.891 499.17 215.849 508.85V330.004H150.898V255.868H215.849V199.445C215.849 135.281 254.098 99.8535 312.554 99.8535C331.742 100.117 350.885 101.784 369.83 104.84V167.888H337.682C305.928 167.888 296.021 187.571 296.021 207.843V255.868H367.009L355.659 330.004H296.021V508.85C359.993 499.17 417.922 465.615 458.146 414.94C498.371 364.265 517.905 300.233 512.816 235.734C507.727 171.235 478.392 111.059 430.717 67.3196C383.042 23.5804 320.567 -0.47394 255.87 -0.000967719Z" fill="white"/>
</g>
<defs>
<clipPath id="clip0_30_590">
<rect width="512" height="508.851" fill="white"/>
</clipPath>
</defs>
</svg>
