<svg width="512" height="512" viewBox="0 0 512 512" fill="none" xmlns="http://www.w3.org/2000/svg">
<g clip-path="url(#clip0_4_27)">
<mask id="mask0_4_27" style="mask-type:luminance" maskUnits="userSpaceOnUse" x="0" y="0" width="512" height="512">
<path d="M512 0H0V512H512V0Z" fill="white"/>
</mask>
<g mask="url(#mask0_4_27)">
<path d="M476.139 94.528L181.333 389.312C179.351 391.302 176.996 392.881 174.402 393.958C171.808 395.036 169.027 395.59 166.219 395.59C163.41 395.59 160.629 395.036 158.035 393.958C155.442 392.881 153.086 391.302 151.104 389.312L37.0988 275.2C35.1167 273.21 32.7612 271.631 30.1675 270.554C27.5737 269.476 24.7928 268.922 21.9841 268.922C19.1755 268.922 16.3946 269.476 13.8008 270.554C11.207 271.631 8.85155 273.21 6.86948 275.2C4.87957 277.182 3.30064 279.538 2.22327 282.131C1.1459 284.725 0.591309 287.506 0.591309 290.315C0.591309 293.123 1.1459 295.904 2.22327 298.498C3.30064 301.092 4.87957 303.447 6.86948 305.429L120.917 419.456C132.948 431.465 149.252 438.209 166.251 438.209C183.249 438.209 199.553 431.465 211.584 419.456L506.368 124.736C508.355 122.754 509.931 120.4 511.007 117.808C512.082 115.217 512.636 112.438 512.636 109.632C512.636 106.826 512.082 104.047 511.007 101.456C509.931 98.8638 508.355 96.5097 506.368 94.528C504.386 92.5381 502.031 90.9592 499.437 89.8818C496.843 88.8044 494.062 88.2498 491.254 88.2498C488.445 88.2498 485.664 88.8044 483.07 89.8818C480.476 90.9592 478.121 92.5381 476.139 94.528Z" fill="white"/>
</g>
</g>
<defs>
<clipPath id="clip0_4_27">
<rect width="512" height="512" fill="white"/>
</clipPath>
</defs>
</svg>
