<svg width="512" height="512" viewBox="0 0 512 512" fill="none" xmlns="http://www.w3.org/2000/svg">
<g clip-path="url(#clip0_1062_8057)">
<path d="M362.666 298.667C362.666 304.325 360.418 309.751 356.418 313.752C352.417 317.752 346.991 320 341.333 320H170.666C165.008 320 159.582 317.752 155.581 313.752C151.58 309.751 149.333 304.325 149.333 298.667C149.333 293.009 151.58 287.583 155.581 283.582C159.582 279.581 165.008 277.333 170.666 277.333H341.333C346.991 277.333 352.417 279.581 356.418 283.582C360.418 287.583 362.666 293.009 362.666 298.667ZM277.333 362.667H170.666C165.008 362.667 159.582 364.914 155.581 368.915C151.58 372.916 149.333 378.342 149.333 384C149.333 389.658 151.58 395.084 155.581 399.085C159.582 403.086 165.008 405.333 170.666 405.333H277.333C282.991 405.333 288.417 403.086 292.418 399.085C296.418 395.084 298.666 389.658 298.666 384C298.666 378.342 296.418 372.916 292.418 368.915C288.417 364.914 282.991 362.667 277.333 362.667ZM469.333 223.68V405.333C469.299 433.613 458.05 460.724 438.053 480.721C418.057 500.717 390.945 511.966 362.666 512H149.333C121.053 511.966 93.9419 500.717 73.9454 480.721C53.9488 460.724 42.6999 433.613 42.666 405.333V106.667C42.6999 78.3873 53.9488 51.2759 73.9454 31.2794C93.9419 11.2828 121.053 0.0338777 149.333 3.42377e-06H245.653C265.271 -0.050491 284.705 3.78854 302.831 11.2951C320.956 18.8017 337.414 29.8269 351.253 43.7333L425.578 118.101C439.492 131.93 450.524 148.383 458.035 166.506C465.546 184.629 469.386 204.062 469.333 223.68ZM321.087 73.8987C314.373 67.3954 306.835 61.8011 298.666 57.2587V149.333C298.666 154.991 300.914 160.417 304.914 164.418C308.915 168.419 314.341 170.667 319.999 170.667H412.074C407.529 162.5 401.927 154.968 395.413 148.267L321.087 73.8987ZM426.666 223.68C426.666 220.16 425.983 216.789 425.663 213.333H319.999C303.025 213.333 286.747 206.591 274.744 194.588C262.742 182.586 255.999 166.307 255.999 149.333V43.6693C252.543 43.3493 249.151 42.6667 245.653 42.6667H149.333C132.359 42.6667 116.08 49.4095 104.078 61.4118C92.0755 73.4142 85.3327 89.6928 85.3327 106.667V405.333C85.3327 422.307 92.0755 438.586 104.078 450.588C116.08 462.591 132.359 469.333 149.333 469.333H362.666C379.64 469.333 395.919 462.591 407.921 450.588C419.923 438.586 426.666 422.307 426.666 405.333V223.68Z" fill="#004675"/>
<path d="M426.335 170.67C473.464 170.67 511.67 132.464 511.67 85.335C511.67 38.2058 473.464 0 426.335 0C379.206 0 341 38.2058 341 85.335C341 132.464 379.206 170.67 426.335 170.67Z" fill="#C3001B"/>
</g>
<defs>
<clipPath id="clip0_1062_8057">
<rect width="512" height="512" fill="white"/>
</clipPath>
</defs>
</svg>
