<svg width="20" height="20" viewBox="0 0 20 20" fill="none" xmlns="http://www.w3.org/2000/svg">
<g clip-path="url(#clip0_806_10166)">
<path d="M9.99984 5C9.34057 5 8.6961 5.1955 8.14794 5.56177C7.59977 5.92804 7.17253 6.44863 6.92024 7.05772C6.66795 7.66681 6.60194 8.33703 6.73055 8.98363C6.85917 9.63024 7.17664 10.2242 7.64282 10.6904C8.10899 11.1565 8.70293 11.474 9.34954 11.6026C9.99614 11.7312 10.6664 11.6652 11.2755 11.4129C11.8845 11.1606 12.4051 10.7334 12.7714 10.1852C13.1377 9.63707 13.3332 8.9926 13.3332 8.33333C13.3332 7.44928 12.982 6.60143 12.3569 5.97631C11.7317 5.35119 10.8839 5 9.99984 5ZM9.99984 10C9.6702 10 9.34797 9.90225 9.07389 9.71912C8.79981 9.53598 8.58619 9.27568 8.46004 8.97114C8.33389 8.6666 8.30089 8.33148 8.3652 8.00818C8.42951 7.68488 8.58824 7.38791 8.82133 7.15482C9.05442 6.92174 9.35139 6.763 9.67469 6.69869C9.99799 6.63438 10.3331 6.66739 10.6376 6.79353C10.9422 6.91968 11.2025 7.1333 11.3856 7.40738C11.5688 7.68147 11.6665 8.0037 11.6665 8.33333C11.6665 8.77536 11.4909 9.19928 11.1784 9.51184C10.8658 9.82441 10.4419 10 9.99984 10Z" fill="#004675"/>
<path d="M9.99977 20C9.29806 20.0036 8.6057 19.839 7.98066 19.52C7.35562 19.201 6.8161 18.737 6.40727 18.1666C3.23144 13.7858 1.62061 10.4925 1.62061 8.37746C1.62061 6.15517 2.50341 4.02389 4.07481 2.45249C5.64621 0.881094 7.77748 -0.00170898 9.99977 -0.00170898C12.2221 -0.00170898 14.3533 0.881094 15.9247 2.45249C17.4961 4.02389 18.3789 6.15517 18.3789 8.37746C18.3789 10.4925 16.7681 13.7858 13.5923 18.1666C13.1834 18.737 12.6439 19.201 12.0189 19.52C11.3938 19.839 10.7015 20.0036 9.99977 20ZM9.99977 1.81746C8.26012 1.81944 6.59229 2.5114 5.36217 3.74152C4.13204 4.97164 3.44009 6.63947 3.43811 8.37912C3.43811 10.0541 5.01561 13.1516 7.87894 17.1008C8.12202 17.4356 8.44091 17.7081 8.80953 17.896C9.17815 18.0839 9.58602 18.1819 9.99977 18.1819C10.4135 18.1819 10.8214 18.0839 11.19 17.896C11.5586 17.7081 11.8775 17.4356 12.1206 17.1008C14.9839 13.1516 16.5614 10.0541 16.5614 8.37912C16.5595 6.63947 15.8675 4.97164 14.6374 3.74152C13.4073 2.5114 11.7394 1.81944 9.99977 1.81746Z" fill="#004675"/>
</g>
<defs>
<clipPath id="clip0_806_10166">
<rect width="20" height="20" fill="white"/>
</clipPath>
</defs>
</svg>
