<svg width="512" height="512" viewBox="0 0 512 512" fill="none" xmlns="http://www.w3.org/2000/svg">
<g clip-path="url(#clip0_868_11300)">
<path d="M496.448 200.939C477.189 169.402 452.896 141.232 424.533 117.547L484.267 57.8135C488.153 53.79 490.303 48.4012 490.254 42.8076C490.206 37.2141 487.962 31.8634 484.007 27.9081C480.051 23.9527 474.701 21.7091 469.107 21.6605C463.514 21.6119 458.125 23.7621 454.101 27.6482L389.141 92.6935C348.872 68.775 302.835 56.3088 256 56.6402C123.925 56.6402 48.6612 147.051 15.5519 200.939C5.32314 217.483 -0.0949707 236.549 -0.0949707 256C-0.0949707 275.451 5.32314 294.517 15.5519 311.062C34.8107 342.598 59.1036 370.768 87.4665 394.454L27.7332 454.187C25.6957 456.155 24.0704 458.509 22.9524 461.112C21.8343 463.714 21.2458 466.514 21.2212 469.346C21.1966 472.179 21.7364 474.988 22.809 477.61C23.8817 480.232 25.4657 482.614 27.4688 484.617C29.4718 486.62 31.8537 488.204 34.4755 489.276C37.0973 490.349 39.9065 490.889 42.7391 490.864C45.5717 490.84 48.3711 490.251 50.9738 489.133C53.5766 488.015 55.9306 486.39 57.8985 484.352L123.008 419.243C163.227 443.158 209.209 455.645 256 455.36C388.075 455.36 463.339 364.95 496.448 311.062C506.677 294.517 512.095 275.451 512.095 256C512.095 236.549 506.677 217.483 496.448 200.939ZM51.9039 288.726C45.8268 278.892 42.6079 267.56 42.6079 256C42.6079 244.44 45.8268 233.109 51.9039 223.275C80.3625 177.067 144.683 99.3069 256 99.3069C291.419 99.1084 326.341 107.645 357.675 124.16L314.731 167.104C294.249 153.506 269.694 147.413 245.232 149.859C220.769 152.305 197.906 163.139 180.523 180.523C163.139 197.907 152.305 220.769 149.859 245.232C147.413 269.694 153.506 294.249 167.104 314.731L117.824 364.011C91.6927 342.885 69.3937 317.418 51.9039 288.726ZM320 256C320 272.974 313.257 289.253 301.255 301.255C289.252 313.257 272.974 320 256 320C246.496 319.963 237.124 317.775 228.587 313.6L313.6 228.587C317.775 237.124 319.963 246.496 320 256ZM192 256C192 239.026 198.743 222.748 210.745 210.745C222.747 198.743 239.026 192 256 192C265.504 192.037 274.876 194.225 283.413 198.4L198.4 283.414C194.225 274.876 192.037 265.504 192 256ZM460.096 288.726C431.637 334.934 367.317 412.694 256 412.694C220.581 412.892 185.659 404.356 154.325 387.84L197.269 344.896C217.751 358.494 242.306 364.587 266.768 362.141C291.231 359.695 314.093 348.861 331.477 331.477C348.861 314.094 359.695 291.231 362.141 266.769C364.587 242.306 358.494 217.751 344.896 197.27L394.176 147.99C420.307 169.116 442.606 194.583 460.096 223.275C466.173 233.109 469.392 244.44 469.392 256C469.392 267.56 466.173 278.892 460.096 288.726Z" fill="#004675"/>
</g>
<defs>
<clipPath id="clip0_868_11300">
<rect width="512" height="512" fill="white"/>
</clipPath>
</defs>
</svg>
