<svg width="20" height="20" viewBox="0 0 20 20" fill="none" xmlns="http://www.w3.org/2000/svg">
<g clip-path="url(#clip0_806_10837)">
<mask id="path-1-inside-1_806_10837" fill="white">
<path d="M12.5002 0H7.50016C6.3955 0.00132321 5.33646 0.440735 4.55535 1.22185C3.77423 2.00296 3.33482 3.062 3.3335 4.16667V15.8333C3.33482 16.938 3.77423 17.997 4.55535 18.7782C5.33646 19.5593 6.3955 19.9987 7.50016 20H12.5002C13.6048 19.9987 14.6639 19.5593 15.445 18.7782C16.2261 17.997 16.6655 16.938 16.6668 15.8333V4.16667C16.6655 3.062 16.2261 2.00296 15.445 1.22185C14.6639 0.440735 13.6048 0.00132321 12.5002 0ZM7.50016 1.66667H12.5002C13.1632 1.66667 13.7991 1.93006 14.2679 2.3989C14.7368 2.86774 15.0002 3.50363 15.0002 4.16667V13.3333H5.00016V4.16667C5.00016 3.50363 5.26355 2.86774 5.7324 2.3989C6.20124 1.93006 6.83712 1.66667 7.50016 1.66667ZM12.5002 18.3333H7.50016C6.83712 18.3333 6.20124 18.0699 5.7324 17.6011C5.26355 17.1323 5.00016 16.4964 5.00016 15.8333V15H15.0002V15.8333C15.0002 16.4964 14.7368 17.1323 14.2679 17.6011C13.7991 18.0699 13.1632 18.3333 12.5002 18.3333Z"/>
</mask>
<path d="M12.5002 0H7.50016C6.3955 0.00132321 5.33646 0.440735 4.55535 1.22185C3.77423 2.00296 3.33482 3.062 3.3335 4.16667V15.8333C3.33482 16.938 3.77423 17.997 4.55535 18.7782C5.33646 19.5593 6.3955 19.9987 7.50016 20H12.5002C13.6048 19.9987 14.6639 19.5593 15.445 18.7782C16.2261 17.997 16.6655 16.938 16.6668 15.8333V4.16667C16.6655 3.062 16.2261 2.00296 15.445 1.22185C14.6639 0.440735 13.6048 0.00132321 12.5002 0ZM7.50016 1.66667H12.5002C13.1632 1.66667 13.7991 1.93006 14.2679 2.3989C14.7368 2.86774 15.0002 3.50363 15.0002 4.16667V13.3333H5.00016V4.16667C5.00016 3.50363 5.26355 2.86774 5.7324 2.3989C6.20124 1.93006 6.83712 1.66667 7.50016 1.66667ZM12.5002 18.3333H7.50016C6.83712 18.3333 6.20124 18.0699 5.7324 17.6011C5.26355 17.1323 5.00016 16.4964 5.00016 15.8333V15H15.0002V15.8333C15.0002 16.4964 14.7368 17.1323 14.2679 17.6011C13.7991 18.0699 13.1632 18.3333 12.5002 18.3333Z" fill="#004675"/>
<path d="M12.5002 0L12.5257 -21.3333L12.5129 -21.3333H12.5002V0ZM7.50016 0V-21.3333H7.48739L7.47461 -21.3333L7.50016 0ZM3.3335 4.16667L-17.9998 4.14111L-17.9998 4.15389V4.16667H3.3335ZM3.3335 15.8333H-17.9998V15.8461L-17.9998 15.8589L3.3335 15.8333ZM7.50016 20L7.47461 41.3333L7.48739 41.3333H7.50016V20ZM12.5002 20V41.3333H12.5129L12.5257 41.3333L12.5002 20ZM16.6668 15.8333L38.0001 15.8589L38.0002 15.8461V15.8333H16.6668ZM16.6668 4.16667H38.0002V4.15389L38.0001 4.14111L16.6668 4.16667ZM7.50016 1.66667L7.50016 -19.6667L7.50016 1.66667ZM15.0002 4.16667L36.3335 4.16667L15.0002 4.16667ZM15.0002 13.3333V34.6667H36.3335V13.3333H15.0002ZM5.00016 13.3333H-16.3332V34.6667H5.00016V13.3333ZM12.5002 18.3333L12.5002 39.6667L12.5002 18.3333ZM7.50016 18.3333V39.6667V18.3333ZM5.00016 15V-6.33333H-16.3332V15H5.00016ZM15.0002 15H36.3335V-6.33333H15.0002V15ZM15.0002 15.8333H36.3335H15.0002ZM12.5002 -21.3333H7.50016V21.3333H12.5002V-21.3333ZM7.47461 -21.3333C0.720852 -21.3252 -5.75397 -18.6387 -10.5296 -13.8631L19.6403 16.3068C16.4269 19.5202 12.0701 21.3279 7.52572 21.3333L7.47461 -21.3333ZM-10.5296 -13.8631C-15.3052 -9.08747 -17.9917 -2.61264 -17.9998 4.14111L24.6668 4.19222C24.6614 8.73665 22.8537 13.0934 19.6403 16.3068L-10.5296 -13.8631ZM-17.9998 4.16667V15.8333H24.6668V4.16667H-17.9998ZM-17.9998 15.8589C-17.9917 22.6126 -15.3052 29.0875 -10.5296 33.8631L19.6403 3.69321C22.8537 6.90661 24.6614 11.2634 24.6668 15.8078L-17.9998 15.8589ZM-10.5296 33.8631C-5.75396 38.6387 0.720863 41.3252 7.47461 41.3333L7.52572 -1.33332C12.0701 -1.32788 16.4269 0.479798 19.6403 3.69321L-10.5296 33.8631ZM7.50016 41.3333H12.5002V-1.33333H7.50016V41.3333ZM12.5257 41.3333C19.2795 41.3252 25.7543 38.6387 30.5299 33.8631L0.360035 3.69321C3.57345 0.479795 7.93019 -1.32788 12.4746 -1.33332L12.5257 41.3333ZM30.5299 33.8631C35.3056 29.0875 37.9921 22.6126 38.0001 15.8589L-4.66649 15.8078C-4.66105 11.2634 -2.85338 6.90662 0.360035 3.69321L30.5299 33.8631ZM38.0002 15.8333V4.16667H-4.6665V15.8333H38.0002ZM38.0001 4.14111C37.9921 -2.61263 35.3056 -9.08746 30.5299 -13.8631L0.360035 16.3068C-2.85337 13.0934 -4.66105 8.73664 -4.66649 4.19222L38.0001 4.14111ZM30.5299 -13.8631C25.7543 -18.6387 19.2795 -21.3252 12.5257 -21.3333L12.4746 21.3333C7.93018 21.3279 3.57344 19.5202 0.360035 16.3068L30.5299 -13.8631ZM7.50016 23H12.5002V-19.6667H7.50016V23ZM12.5002 23C7.50525 23 2.71492 21.0158 -0.817015 17.4838L29.3529 -12.686C24.8833 -17.1557 18.8212 -19.6667 12.5002 -19.6667L12.5002 23ZM-0.817015 17.4838C-4.34896 13.9519 -6.33317 9.16157 -6.33317 4.16667L36.3335 4.16667C36.3335 -2.15432 33.8225 -8.21642 29.3529 -12.686L-0.817015 17.4838ZM-6.33317 4.16667V13.3333H36.3335V4.16667H-6.33317ZM15.0002 -8H5.00016V34.6667H15.0002V-8ZM26.3335 13.3333V4.16667H-16.3332V13.3333H26.3335ZM26.3335 4.16667C26.3335 9.16158 24.3493 13.9519 20.8173 17.4838L-9.35255 -12.686C-13.8222 -8.21643 -16.3332 -2.15433 -16.3332 4.16667H26.3335ZM20.8173 17.4838C17.2854 21.0158 12.4951 23 7.50016 23L7.50016 -19.6667C1.17917 -19.6667 -4.88293 -17.1557 -9.35255 -12.686L20.8173 17.4838ZM12.5002 -3H7.50016V39.6667H12.5002V-3ZM7.50016 -3C12.4951 -3 17.2854 -1.01578 20.8173 2.51616L-9.35255 32.686C-4.88293 37.1557 1.17918 39.6667 7.50016 39.6667L7.50016 -3ZM20.8173 2.51616C24.3493 6.04809 26.3335 10.8384 26.3335 15.8333H-16.3332C-16.3332 22.1543 -13.8222 28.2164 -9.35255 32.686L20.8173 2.51616ZM26.3335 15.8333V15H-16.3332V15.8333H26.3335ZM5.00016 36.3333H15.0002V-6.33333H5.00016V36.3333ZM-6.33317 15V15.8333H36.3335V15H-6.33317ZM-6.33317 15.8333C-6.33317 10.8384 -4.34896 6.0481 -0.817015 2.51616L29.3529 32.686C33.8225 28.2164 36.3335 22.1543 36.3335 15.8333L-6.33317 15.8333ZM-0.817015 2.51616C2.71493 -1.01579 7.50526 -3 12.5002 -3L12.5002 39.6667C18.8211 39.6667 24.8833 37.1557 29.3529 32.686L-0.817015 2.51616Z" fill="#004675" mask="url(#path-1-inside-1_806_10837)"/>
<path d="M9.99984 17.5C10.4601 17.5 10.8332 17.1269 10.8332 16.6667C10.8332 16.2065 10.4601 15.8334 9.99984 15.8334C9.5396 15.8334 9.1665 16.2065 9.1665 16.6667C9.1665 17.1269 9.5396 17.5 9.99984 17.5Z" fill="#004675"/>
</g>
<defs>
<clipPath id="clip0_806_10837">
<rect width="20" height="20" fill="white"/>
</clipPath>
</defs>
</svg>
