<svg width="512" height="512" viewBox="0 0 512 512" fill="none" xmlns="http://www.w3.org/2000/svg">
<g clip-path="url(#clip0_1062_8037)">
<path d="M362.666 512H149.439C137.1 511.988 124.909 509.313 113.699 504.159C102.488 499.005 92.5211 491.492 84.4793 482.133C76.5683 472.97 70.7274 462.208 67.355 450.581C63.9826 438.954 63.1582 426.737 64.938 414.763C76.3832 352.37 109.666 296.089 158.826 256C109.665 215.897 76.3895 159.6 64.9593 97.1947C63.183 85.2286 64.0072 73.0203 67.3757 61.4016C70.7442 49.7829 76.578 39.0269 84.4793 29.8667C92.5211 20.5083 102.488 12.9954 113.699 7.84102C124.909 2.68662 137.1 0.0120808 149.439 0L362.666 0C375.002 0.0109257 387.19 2.68506 398.398 7.83964C409.605 12.9942 419.568 20.5077 427.605 29.8667C435.517 39.0176 441.362 49.7674 444.742 61.3828C448.121 72.9983 448.956 85.206 447.189 97.1733C435.633 159.594 402.284 215.881 353.087 256C402.256 296.153 435.567 352.463 447.082 414.891C448.851 426.861 448.018 439.073 444.638 450.692C441.258 462.311 435.412 473.065 427.498 482.219C419.465 491.548 409.516 499.038 398.329 504.177C387.141 509.316 374.977 511.984 362.666 512ZM362.666 42.6667H149.439C143.251 42.6615 137.135 43.9931 131.508 46.5705C125.882 49.1479 120.879 52.9102 116.842 57.6C112.897 62.088 109.984 67.3858 108.307 73.1208C106.63 78.8557 106.23 84.8885 107.135 90.7947C115.135 144.128 148.138 194.048 205.269 239.211C207.791 241.208 209.829 243.75 211.23 246.646C212.631 249.543 213.359 252.719 213.359 255.936C213.359 259.153 212.631 262.329 211.23 265.226C209.829 268.122 207.791 270.664 205.269 272.661C148.138 317.867 115.199 367.829 107.135 421.141C106.22 427.058 106.615 433.103 108.293 438.849C109.97 444.596 112.888 449.905 116.842 454.4C120.879 459.09 125.882 462.852 131.508 465.43C137.135 468.007 143.251 469.339 149.439 469.333H362.666C368.854 469.339 374.971 468.007 380.597 465.43C386.223 462.852 391.226 459.09 395.263 454.4C399.206 449.919 402.12 444.629 403.8 438.902C405.481 433.175 405.887 427.149 404.991 421.248C397.034 368.192 364.031 318.229 306.858 272.725C304.351 270.727 302.327 268.19 300.935 265.301C299.544 262.413 298.821 259.249 298.821 256.043C298.821 252.837 299.544 249.672 300.935 246.784C302.327 243.896 304.351 241.358 306.858 239.36C364.053 193.856 397.055 143.893 404.991 90.816C405.884 84.8971 405.466 78.8542 403.767 73.1146C402.067 67.375 399.128 62.0787 395.157 57.6C391.131 52.9238 386.145 49.1696 380.539 46.5927C374.932 44.0158 368.836 42.6768 362.666 42.6667Z" fill="#004675"/>
</g>
<defs>
<clipPath id="clip0_1062_8037">
<rect width="512" height="512" fill="white"/>
</clipPath>
</defs>
</svg>
