<svg width="512" height="512" viewBox="0 0 512 512" fill="none" xmlns="http://www.w3.org/2000/svg">
<path d="M226.133 271.145C224.134 269.162 222.547 266.803 221.464 264.203C220.381 261.603 219.823 258.815 219.823 255.999C219.823 253.182 220.381 250.394 221.464 247.794C222.547 245.195 224.134 242.835 226.133 240.852L324.053 143.145C326.053 141.162 327.64 138.803 328.723 136.203C329.806 133.603 330.364 130.815 330.364 127.999C330.364 125.182 329.806 122.394 328.723 119.794C327.64 117.195 326.053 114.835 324.053 112.852C320.056 108.879 314.649 106.648 309.013 106.648C303.377 106.648 297.97 108.879 293.973 112.852L196.053 210.772C184.068 222.772 177.336 239.039 177.336 255.999C177.336 272.959 184.068 289.225 196.053 301.225L293.973 399.145C297.947 403.087 303.31 405.308 308.907 405.332C311.714 405.348 314.498 404.81 317.097 403.748C319.696 402.687 322.06 401.123 324.053 399.145C326.053 397.162 327.64 394.803 328.723 392.203C329.806 389.603 330.364 386.815 330.364 383.999C330.364 381.182 329.806 378.394 328.723 375.794C327.64 373.195 326.053 370.835 324.053 368.852L226.133 271.145Z" fill="#004675"/>
</svg>
