<svg width="512" height="512" viewBox="0 0 512 512" fill="none" xmlns="http://www.w3.org/2000/svg">
<g clip-path="url(#clip0_1920_7907)">
<path d="M487.531 24.4916C473.028 10.0105 453.37 1.87695 432.875 1.87695C412.38 1.87695 392.722 10.0105 378.219 24.4916L31.2537 371.457C21.3177 381.337 13.4395 393.089 8.07495 406.034C2.71038 418.978 -0.0340902 432.858 0.000319599 446.87V490.668C0.000319599 496.326 2.24793 501.752 6.24871 505.753C10.2495 509.753 15.6757 512.001 21.3337 512.001H65.131C79.1419 512.041 93.0215 509.301 105.966 503.94C118.911 498.578 130.664 490.703 140.544 480.769L487.531 133.782C502.006 119.28 510.135 99.6269 510.135 79.137C510.135 58.647 502.006 38.9941 487.531 24.4916ZM110.379 450.604C98.3471 462.556 82.0902 469.285 65.131 469.334H42.667V446.87C42.6454 438.463 44.2917 430.135 47.5104 422.368C50.7292 414.601 55.4566 407.55 61.419 401.622L324.736 138.305L373.803 187.372L110.379 450.604ZM457.344 103.617L403.883 157.1L354.816 108.14L408.299 54.657C411.521 51.4422 415.344 48.8935 419.551 47.1564C423.758 45.4192 428.265 44.5277 432.817 44.5326C437.368 44.5376 441.874 45.4389 446.077 47.1852C450.28 48.9315 454.098 51.4885 457.312 54.7103C460.527 57.9321 463.076 61.7555 464.813 65.9622C466.55 70.169 467.442 74.6767 467.437 79.228C467.432 83.7793 466.53 88.2851 464.784 92.4881C463.038 96.691 460.481 100.509 457.259 103.724L457.344 103.617Z" fill="#004675"/>
</g>
<defs>
<clipPath id="clip0_1920_7907">
<rect width="512" height="512" fill="white"/>
</clipPath>
</defs>
</svg>
