<svg width="512" height="512" viewBox="0 0 512 512" fill="none" xmlns="http://www.w3.org/2000/svg">
<g clip-path="url(#clip0_1062_8040)">
<path d="M481.173 291.456L440.64 145.621C428.759 102.898 402.938 65.3715 367.282 39.0074C331.625 12.6433 288.179 -1.04562 243.85 0.116627C199.52 1.27887 156.851 17.2255 122.625 45.4218C88.3989 73.6181 64.58 112.446 54.9543 155.733L23.5729 296.853C20.1066 312.447 20.1868 328.619 23.8075 344.177C27.4282 359.736 34.497 374.282 44.492 386.742C54.4871 399.203 67.1531 409.26 81.5551 416.17C95.957 423.08 111.727 426.667 127.701 426.667H151.466C156.363 450.779 169.445 472.458 188.495 488.029C207.546 503.601 231.395 512.107 256 512.107C280.605 512.107 304.453 503.601 323.504 488.029C342.555 472.458 355.637 450.779 360.533 426.667H378.41C394.854 426.668 411.076 422.867 425.808 415.561C440.54 408.256 453.383 397.643 463.334 384.552C473.286 371.461 480.076 356.246 483.174 340.097C486.272 323.947 485.573 307.3 481.173 291.456ZM256 469.333C242.81 469.279 229.96 465.15 219.206 457.513C208.453 449.875 200.321 439.102 195.925 426.667H316.074C311.678 439.102 303.547 449.875 292.793 457.513C282.04 465.15 269.189 469.279 256 469.333ZM429.354 358.72C423.41 366.606 415.708 372.997 406.861 377.386C398.013 381.774 388.265 384.039 378.389 384H127.701C118.118 383.998 108.657 381.845 100.018 377.698C91.378 373.551 83.78 367.517 77.7844 360.04C71.7888 352.564 67.5486 343.837 65.3769 334.503C63.2052 325.169 63.1574 315.467 65.2369 306.112L96.5969 164.971C104.156 130.97 122.865 100.472 149.748 78.3243C176.631 56.177 210.146 43.6517 244.965 42.7395C279.785 41.8273 313.91 52.5806 341.915 73.29C369.921 93.9994 390.201 123.476 399.53 157.035L440.064 302.869C442.742 312.371 443.168 322.365 441.309 332.06C439.45 341.755 435.357 350.883 429.354 358.72Z" fill="#004675"/>
</g>
<defs>
<clipPath id="clip0_1062_8040">
<rect width="512" height="512" fill="white"/>
</clipPath>
</defs>
</svg>
