<svg width="512" height="512" viewBox="0 0 512 512" fill="none" xmlns="http://www.w3.org/2000/svg">
<g clip-path="url(#clip0_1438_9296)">
<path d="M298.667 512C294.051 512 289.559 510.503 285.867 507.733L200.533 443.733C197.884 441.746 195.733 439.169 194.252 436.207C192.771 433.245 192 429.979 192 426.667V306.773L42.3252 138.389C31.6953 126.397 24.7547 111.591 22.3376 95.749C19.9206 79.9073 22.1299 63.7046 28.7001 49.0883C35.2704 34.472 45.9219 22.0642 59.3744 13.3561C72.827 4.64795 88.5082 0.0101209 104.533 0L407.467 0C423.49 0.0187958 439.168 4.66431 452.615 13.3783C466.062 22.0922 476.707 34.5039 483.27 49.1218C489.833 63.7397 492.035 79.9419 489.612 95.7813C487.189 111.621 480.244 126.423 469.611 138.411L320 306.773V490.667C320 496.325 317.752 501.751 313.752 505.752C309.751 509.752 304.325 512 298.667 512ZM234.667 416L277.333 448V298.667C277.338 293.443 279.258 288.403 282.731 284.501L437.781 110.059C442.951 104.215 446.325 97.0035 447.497 89.2896C448.67 81.5758 447.59 73.6875 444.39 66.5719C441.189 59.4562 436.002 53.4156 429.453 49.1752C422.903 44.9348 415.269 42.6749 407.467 42.6667H104.533C96.7349 42.6785 89.1054 44.9397 82.56 49.179C76.0146 53.4184 70.831 59.4559 67.631 66.5675C64.431 73.6791 63.3504 81.5628 64.5189 89.2732C65.6873 96.9835 69.0552 104.193 74.2186 110.037L229.291 284.501C232.755 288.406 234.668 293.446 234.667 298.667V416Z" fill="#004675"/>
</g>
<defs>
<clipPath id="clip0_1438_9296">
<rect width="512" height="512" fill="white"/>
</clipPath>
</defs>
</svg>
