<svg width="20" height="21" viewBox="0 0 20 21" fill="none" xmlns="http://www.w3.org/2000/svg">
<g clip-path="url(#clip0_806_10048)">
<path d="M19.2667 8.75837L16.0417 5.50004C15.9642 5.42193 15.872 5.35994 15.7705 5.31763C15.6689 5.27532 15.56 5.25354 15.45 5.25354C15.34 5.25354 15.2311 5.27532 15.1295 5.31763C15.028 5.35994 14.9358 5.42193 14.8583 5.50004C14.7031 5.65617 14.616 5.86738 14.616 6.08754C14.616 6.30769 14.7031 6.5189 14.8583 6.67504L17.825 9.66671H0.833333C0.61232 9.66671 0.400358 9.7545 0.244078 9.91078C0.0877974 10.0671 0 10.279 0 10.5C0 10.7211 0.0877974 10.933 0.244078 11.0893C0.400358 11.2456 0.61232 11.3334 0.833333 11.3334H17.875L14.8583 14.3417C14.7802 14.4192 14.7182 14.5113 14.6759 14.6129C14.6336 14.7144 14.6118 14.8234 14.6118 14.9334C14.6118 15.0434 14.6336 15.1523 14.6759 15.2539C14.7182 15.3554 14.7802 15.4476 14.8583 15.525C14.9358 15.6031 15.028 15.6651 15.1295 15.7074C15.2311 15.7498 15.34 15.7715 15.45 15.7715C15.56 15.7715 15.6689 15.7498 15.7705 15.7074C15.872 15.6651 15.9642 15.6031 16.0417 15.525L19.2667 12.2917C19.7348 11.823 19.9978 11.1875 19.9978 10.525C19.9978 9.86254 19.7348 9.22712 19.2667 8.75837Z" fill="#004675"/>
</g>
<defs>
<clipPath id="clip0_806_10048">
<rect width="20" height="20" fill="white" transform="translate(0 0.5)"/>
</clipPath>
</defs>
</svg>
