<svg width="512" height="512" viewBox="0 0 512 512" fill="none" xmlns="http://www.w3.org/2000/svg">
<path d="M384 330.667C381.192 330.683 378.409 330.145 375.81 329.083C373.211 328.021 370.847 326.457 368.853 324.48L271.147 226.56C269.163 224.56 266.804 222.973 264.204 221.89C261.605 220.807 258.816 220.25 256 220.25C253.184 220.25 250.395 220.807 247.796 221.89C245.196 222.973 242.837 224.56 240.853 226.56L143.147 324.48C139.129 328.497 133.681 330.754 128 330.754C122.319 330.754 116.87 328.497 112.853 324.48C108.836 320.463 106.579 315.014 106.579 309.333C106.579 306.52 107.133 303.735 108.21 301.136C109.286 298.537 110.864 296.176 112.853 294.187L210.773 196.48C222.932 184.799 239.139 178.275 256 178.275C272.861 178.275 289.068 184.799 301.227 196.48L399.147 294.187C401.146 296.17 402.733 298.529 403.816 301.129C404.899 303.729 405.457 306.517 405.457 309.333C405.457 312.15 404.899 314.938 403.816 317.538C402.733 320.137 401.146 322.497 399.147 324.48C397.153 326.457 394.789 328.021 392.19 329.083C389.591 330.145 386.808 330.683 384 330.667Z" fill="#004675"/>
</svg>
