<svg width="512" height="512" viewBox="0 0 512 512" fill="none" xmlns="http://www.w3.org/2000/svg">
<g clip-path="url(#clip0_1438_9296)">
<path d="M476.139 94.5282L181.333 389.312C179.351 391.302 176.996 392.881 174.402 393.958C171.808 395.036 169.027 395.59 166.219 395.59C163.41 395.59 160.629 395.036 158.035 393.958C155.441 392.881 153.086 391.302 151.104 389.312L37.0986 275.2C35.1165 273.21 32.761 271.631 30.1672 270.554C27.5735 269.477 24.7925 268.922 21.9839 268.922C19.1753 268.922 16.3943 269.477 13.8006 270.554C11.2068 271.631 8.8513 273.21 6.86923 275.2C4.87933 277.182 3.3004 279.538 2.22303 282.132C1.14566 284.725 0.591064 287.506 0.591064 290.315C0.591064 293.123 1.14566 295.904 2.22303 298.498C3.3004 301.092 4.87933 303.447 6.86923 305.43L120.917 419.456C132.948 431.465 149.252 438.209 166.251 438.209C183.249 438.209 199.553 431.465 211.584 419.456L506.368 124.736C508.355 122.754 509.931 120.4 511.006 117.809C512.082 115.217 512.635 112.438 512.635 109.632C512.635 106.826 512.082 104.048 511.006 101.456C509.931 98.864 508.355 96.5099 506.368 94.5282C504.386 92.5383 502.03 90.9593 499.437 89.882C496.843 88.8046 494.062 88.25 491.253 88.25C488.445 88.25 485.664 88.8046 483.07 89.882C480.476 90.9593 478.121 92.5383 476.139 94.5282Z" fill="#00907C"/>
</g>
<defs>
<clipPath id="clip0_1438_9296">
<rect width="512" height="512" fill="white"/>
</clipPath>
</defs>
</svg>
