<svg width="512" height="512" viewBox="0 0 512 512" fill="none" xmlns="http://www.w3.org/2000/svg">
<g clip-path="url(#clip0_868_11292)">
<path d="M160.107 512C121.488 511.975 84.1814 497.983 55.071 472.607C25.9605 447.23 7.01084 412.18 1.7186 373.926C-3.57363 335.672 5.14875 296.794 26.2762 264.467C47.4037 232.14 79.5105 208.546 116.672 198.037C143.683 190.302 172.273 189.949 199.467 197.013L368.171 28.3519C377.127 19.334 387.784 12.1841 399.525 7.31717C411.265 2.45021 423.856 -0.0369641 436.565 -8.40736e-05C456.567 0.0168638 475.744 7.96986 489.887 22.1129C504.03 36.256 511.983 55.4333 512 75.4346C512.033 88.1448 509.546 100.735 504.683 112.479C499.821 124.222 492.678 134.885 483.669 143.851L469.333 158.187C461.312 166.153 450.473 170.637 439.168 170.667H405.333V192C405.333 203.316 400.838 214.168 392.836 222.17C384.835 230.171 373.983 234.667 362.667 234.667H341.333V268.501C341.348 274.106 340.251 279.659 338.105 284.837C335.96 290.015 332.807 294.715 328.832 298.667L314.965 312.533C322.068 339.714 321.722 368.306 313.963 395.307C305.231 426.069 287.516 453.526 263.086 474.159C238.655 494.793 208.622 507.664 176.832 511.125C171.275 511.703 165.693 511.995 160.107 512ZM160.107 234.667C138.264 234.645 116.85 240.722 98.2738 252.211C79.6976 263.7 64.6972 280.147 54.9611 299.699C45.2249 319.251 41.1397 341.133 43.1652 362.881C45.1908 384.629 53.2466 405.38 66.4259 422.798C79.6053 440.216 97.3848 453.609 117.763 461.47C138.142 469.332 160.31 471.348 181.772 467.294C203.235 463.24 223.14 453.275 239.246 438.522C255.353 423.768 267.021 404.812 272.939 383.787C279.595 360.673 278.849 336.055 270.805 313.387C269.493 309.601 269.273 305.522 270.171 301.617C271.069 297.712 273.048 294.139 275.883 291.307L298.667 268.501V234.667C298.667 223.351 303.162 212.498 311.163 204.497C319.165 196.495 330.017 192 341.333 192H362.667V170.667C362.667 159.351 367.162 148.498 375.163 140.497C383.165 132.495 394.017 128 405.333 128H439.168L453.504 113.664C458.538 108.654 462.528 102.696 465.245 96.1338C467.963 89.572 469.352 82.5367 469.333 75.4346C469.328 66.7494 465.876 58.4212 459.737 52.2779C453.598 46.1345 445.272 42.6779 436.587 42.6666C429.48 42.6491 422.44 44.041 415.874 46.7617C409.308 49.4825 403.347 53.478 398.336 58.5172L220.608 236.224C217.772 239.059 214.194 241.037 210.285 241.931C206.375 242.825 202.293 242.6 198.507 241.28C186.135 236.924 173.116 234.688 160 234.667H160.107ZM106.667 384C106.667 388.219 107.918 392.344 110.262 395.852C112.606 399.36 115.938 402.095 119.836 403.709C123.734 405.324 128.024 405.747 132.162 404.923C136.3 404.1 140.101 402.068 143.085 399.085C146.068 396.101 148.1 392.3 148.923 388.162C149.747 384.024 149.324 379.734 147.709 375.836C146.095 371.938 143.36 368.606 139.852 366.262C136.344 363.918 132.219 362.667 128 362.667C122.342 362.667 116.916 364.914 112.915 368.915C108.914 372.916 106.667 378.342 106.667 384Z" fill="#004675"/>
</g>
<defs>
<clipPath id="clip0_868_11292">
<rect width="512" height="512" fill="white"/>
</clipPath>
</defs>
</svg>
