<svg width="512" height="512" viewBox="0 0 512 512" fill="none" xmlns="http://www.w3.org/2000/svg">
<path d="M328.534 210.772L230.614 112.852C226.616 108.879 221.209 106.648 215.574 106.648C209.938 106.648 204.531 108.879 200.534 112.852C198.534 114.835 196.947 117.195 195.864 119.794C194.781 122.394 194.223 125.182 194.223 127.999C194.223 130.815 194.781 133.603 195.864 136.203C196.947 138.803 198.534 141.162 200.534 143.145L298.667 240.852C300.666 242.835 302.253 245.195 303.337 247.794C304.42 250.394 304.977 253.182 304.977 255.999C304.977 258.815 304.42 261.603 303.337 264.203C302.253 266.803 300.666 269.162 298.667 271.145L200.534 368.852C196.516 372.841 194.248 378.262 194.228 383.923C194.208 389.584 196.438 395.022 200.427 399.039C204.416 403.056 209.837 405.324 215.498 405.344C221.159 405.364 226.596 403.134 230.614 399.145L328.534 301.225C340.519 289.225 347.251 272.959 347.251 255.999C347.251 239.039 340.519 222.772 328.534 210.772Z" fill="#004675"/>
</svg>
