<svg width="512" height="512" viewBox="0 0 512 512" fill="none" xmlns="http://www.w3.org/2000/svg">
<g clip-path="url(#clip0_30_589)">
<path fill-rule="evenodd" clip-rule="evenodd" d="M256.077 0C397.403 0 512.154 114.597 512.154 256.077C512.154 397.403 397.557 512.154 256.077 512.154C114.751 512.154 0 397.557 0 256.077C0 114.751 114.597 0 256.077 0ZM196.167 115.519H315.987C360.996 115.519 397.71 151.926 397.71 196.167V315.68C397.71 360.074 360.996 396.328 315.987 396.328H196.167C151.158 396.328 114.443 360.074 114.443 315.68V196.167C114.443 151.772 151.311 115.519 196.167 115.519ZM255.309 180.191C299.089 180.191 334.574 215.676 334.574 259.456C334.574 303.237 299.089 338.722 255.309 338.722C211.528 338.722 176.043 303.237 176.043 259.456C176.043 215.676 211.528 180.191 255.309 180.191ZM255.309 206.92C284.188 206.92 307.692 230.423 307.692 259.303C307.692 288.182 284.188 311.686 255.309 311.686C226.275 311.686 202.926 288.182 202.926 259.303C202.926 230.423 226.429 206.92 255.309 206.92ZM331.963 169.131C339.029 169.131 344.867 174.814 344.867 182.034C344.867 189.101 339.183 194.938 331.963 194.938C324.897 194.938 319.059 189.254 319.059 182.034C319.059 174.968 324.743 169.131 331.963 169.131ZM205.998 138.407H306.155C343.791 138.407 374.514 168.977 374.514 206.459V307.231C374.514 344.713 343.791 375.282 306.155 375.282H205.998C168.362 375.282 137.639 344.713 137.639 307.231V206.459C137.639 168.977 168.362 138.407 205.998 138.407Z" fill="white"/>
</g>
<defs>
<clipPath id="clip0_30_589">
<rect width="512" height="512" fill="white"/>
</clipPath>
</defs>
</svg>
