<svg width="512" height="512" viewBox="0 0 512 512" fill="none" xmlns="http://www.w3.org/2000/svg">
<g clip-path="url(#clip0_30_591)">
<path d="M255.869 0C205.263 0 155.793 15.0064 113.716 43.1217C71.6384 71.2369 38.8431 111.198 19.477 157.952C0.110863 204.706 -4.95619 256.153 4.91656 305.786C14.7893 355.42 39.1585 401.011 74.9423 436.795C110.726 472.579 156.318 496.948 205.951 506.821C255.585 516.694 307.032 511.627 353.786 492.261C400.54 472.895 440.501 440.099 468.616 398.022C496.731 355.944 511.738 306.475 511.738 255.869C511.738 188.008 484.78 122.927 436.795 74.9422C388.811 26.9575 323.73 0 255.869 0ZM171.498 395.875C153.259 395.875 135.086 395.875 116.847 395.875C113.96 395.875 113.042 395.219 113.042 392.201C113.042 327.337 113.042 262.43 113.042 197.478C113.042 194.788 113.698 193.87 116.519 193.87C135.02 193.87 153.456 193.87 171.957 193.87C175.5 193.87 175.959 195.182 175.959 198.2C175.959 230.566 175.959 262.889 175.959 295.168C175.959 327.446 175.959 359.507 175.959 391.348C176.09 394.825 175.172 395.941 171.498 395.875ZM144.336 165.987C137.156 165.974 130.141 163.834 124.175 159.838C118.209 155.842 113.561 150.169 110.816 143.534C108.071 136.899 107.353 129.6 108.753 122.557C110.152 115.515 113.606 109.044 118.678 103.963C123.751 98.8808 130.215 95.4153 137.255 94.0034C144.295 92.5915 151.596 93.2964 158.236 96.0292C164.875 98.762 170.557 103.4 174.564 109.359C178.57 115.317 180.723 122.329 180.748 129.509C180.731 139.167 176.891 148.425 170.068 155.26C163.245 162.096 153.994 165.952 144.336 165.987ZM411.358 391.676C411.358 395.022 410.44 395.875 407.16 395.875C388.964 395.875 370.747 395.875 352.509 395.875C349.294 395.875 348.638 394.891 348.638 391.873C348.638 358.216 348.638 324.56 348.638 290.903C348.857 282.455 347.885 274.018 345.751 265.841C344.226 259.02 340.234 253.004 334.542 248.947C328.851 244.89 321.861 243.079 314.916 243.863C293.331 245.044 282.112 255.738 279.356 277.716C278.702 282.939 278.373 288.198 278.372 293.462C278.372 326.266 278.372 359.069 278.372 391.873C278.372 395.088 277.585 396.072 274.239 396.072C255.869 396.072 237.564 396.072 219.194 396.072C216.242 396.072 215.389 395.35 215.389 392.332C215.389 327.6 215.389 262.823 215.389 198.003C215.389 194.788 216.439 194.067 219.457 194.067C236.952 194.067 254.447 194.067 271.943 194.067C275.157 194.067 276.01 195.051 275.945 198.069C275.945 205.81 275.945 213.552 275.945 221.359C280.144 216.636 283.621 211.781 287.951 207.713C294.199 201.616 301.602 196.828 309.724 193.629C317.847 190.429 326.526 188.883 335.254 189.08C345.28 188.9 355.282 190.115 364.974 192.689C375.138 195.513 384.34 201.055 391.588 208.72C398.837 216.384 403.857 225.881 406.11 236.187C410.264 252.424 412.119 269.164 411.621 285.917C411.686 320.951 411.555 356.314 411.621 391.676H411.358Z" fill="white"/>
</g>
<defs>
<clipPath id="clip0_30_591">
<rect width="512" height="512" fill="white"/>
</clipPath>
</defs>
</svg>
