<svg width="340" height="89" viewBox="0 0 340 89" fill="none" xmlns="http://www.w3.org/2000/svg">
<g clip-path="url(#clip0_30_585)">
<mask id="mask0_30_585" style="mask-type:luminance" maskUnits="userSpaceOnUse" x="0" y="-1" width="94" height="90">
<path d="M0.0994763 46.3004C1.19948 68.6004 20.0995 87.0004 43.4995 88.4004C47.0995 88.6004 50.5995 88.5004 54.1995 87.9004C55.9995 87.7004 57.1995 86.1004 56.9995 84.3004C56.9995 84.1004 56.8995 83.9004 56.8995 83.7004C53.4995 74.2004 46.6995 55.1004 45.4995 50.3004C45.4995 50.3004 43.2995 44.2004 52.0995 41.2004C52.0995 41.2004 57.4995 39.6004 58.1995 34.4004C58.7995 30.1004 54.9995 28.8004 50.2995 28.8004L45.4995 28.9004C44.4995 28.9004 43.5995 29.6004 43.3995 30.6004L36.9995 65.3004C36.5995 67.2004 34.8995 68.5004 32.9995 68.5004H24.7995C23.0995 68.6004 21.5995 67.3004 21.4995 65.6004C21.4995 65.3004 21.4995 65.1004 21.5995 64.8004L29.3995 21.8004C30.0995 18.2004 31.4995 17.4004 34.8995 16.8004C40.4995 16.2004 46.0995 15.8004 51.6995 15.8004C66.3995 15.8004 75.7995 20.8004 73.5995 34.0004L73.3995 35.2004C72.1995 41.6004 68.2995 45.3004 63.7995 48.4004C62.0995 49.6004 61.0995 51.4004 61.7995 53.1004L70.4995 76.7004C71.2995 78.6004 73.3995 79.5004 75.2995 78.7004C75.5995 78.6004 75.8995 78.4004 76.1995 78.2004C87.3995 69.6004 93.6995 56.2004 93.0995 42.1004C91.9995 20.5004 71.8995 1.10039 48.9995 0.000390626C48.1995 -0.0996094 47.3995 -0.0996094 46.4995 -0.0996094C20.0995 -0.0996094 -1.20052 20.9004 0.0994763 46.3004Z" fill="white"/>
</mask>
<g mask="url(#mask0_30_585)">
<path d="M-43 29.6012L62 -44.7988L135.6 58.9012L30.6 133.401L-43 29.6012Z" fill="url(#paint0_linear_30_585)"/>
</g>
<path d="M137.3 48.1012L143.5 64.5012C143.6 64.6012 143.6 64.8012 143.6 65.0012C143.6 65.5012 143.2 65.9012 142.5 65.9012H133.6C132.9 65.9012 132.9 65.3012 132.6 64.7012L127.1 50.0012H127C126.8 50.0012 126.4 50.1012 125.9 50.1012C124.6 50.1012 122.7 50.0012 121.6 50.0012L119 64.7012C118.8 65.4012 118.2 65.8012 117.5 65.9012H109.5C109 65.9012 108.6 65.6012 108.5 65.1012V65.0012V64.8012L115.7 25.8012C116.1 23.8012 117 23.3012 118.9 23.0012C123.1 22.5012 127.3 22.2012 131.5 22.2012C140.7 22.2012 147.5 25.5012 147.5 33.3012C147.5 40.1012 144.4 45.8012 137.3 48.1012ZM130 30.5012C129.1 30.5012 126 30.6012 125.2 30.7012L123.1 41.9012C123.8 41.9012 126.7 42.0012 127.4 42.0012C133.4 42.0012 137.1 40.6012 137.1 34.5012C137.2 31.5012 134.8 30.5012 130 30.5012Z" fill="#004E8E"/>
<path d="M192.199 40.7L190.899 47.6C188.399 61.2 180.799 66.3 169.299 66.3C160.899 66.3 154.199 61.6 154.199 52C154.199 50.5 154.299 49 154.599 47.6L155.899 40.7C158.599 26.3 167.299 22 177.499 22C185.699 22 192.499 26.2 192.499 36.1C192.499 37.7 192.399 39.2 192.199 40.7ZM175.799 30.8C170.699 30.8 167.799 33.5 166.399 40.7L165.099 47.6C164.799 48.9 164.699 50.3 164.699 51.7C164.699 56.1 166.799 57.6 170.799 57.6C175.899 57.6 178.899 54.6 180.199 47.6L181.499 40.7C181.699 39.4 181.899 38.1 181.899 36.9C181.999 32.5 179.899 30.7 175.799 30.8Z" fill="#004E8E"/>
<path d="M233 24.001L232 29.401C231.9 30.101 231.3 30.501 230.6 30.601H218.1C215.2 30.601 214 31.501 213.5 34.601L212.5 39.801H228.3C228.8 39.701 229.2 40.101 229.3 40.601V40.701V40.901L228.3 46.401C228.1 47.101 227.5 47.501 226.8 47.601H211L207.9 64.601C207.7 65.301 207.1 65.701 206.4 65.801H198.5C198 65.801 197.6 65.501 197.5 65.001V64.901V64.701L203.1 34.601C205.1 23.601 211.9 22.101 220.3 22.101C224.2 22.001 228.1 22.301 232 22.901C232.7 23.001 233.1 23.201 233.1 23.801C233 23.801 233 23.901 233 24.001Z" fill="#004E8E"/>
<path d="M253.7 23.7012L246.1 64.7012C246 65.4012 245.4 65.8012 244.7 65.9012H236.5C236 65.9012 235.7 65.6012 235.6 65.1012C235.6 65.1012 235.6 65.1012 235.6 65.0012V64.7012L243.2 23.7012C243.3 23.1012 243.8 22.6012 244.5 22.6012H252.7C253.2 22.5012 253.6 22.8012 253.7 23.3012C253.7 23.4012 253.7 23.4012 253.7 23.5012V23.7012Z" fill="#004E8E"/>
<path d="M300.8 23.7006L293.4 63.6005C293.1 64.9005 292 65.8006 290.7 65.8006H285.6C284.3 65.8006 282.9 65.6005 282.2 64.0005L272 41.1005C271.8 40.8005 271.7 40.6005 271.5 40.6005C271.3 40.6005 271.2 40.7005 271.1 41.1005L266.8 64.7005C266.6 65.4005 266 65.8006 265.3 65.9006H258.1C257.6 65.9006 257.1 65.6005 257.1 65.1005C257.1 65.0005 257.1 65.0005 257.1 64.9006V64.7005L264.4 24.9005C264.7 23.6005 265.8 22.7006 267.2 22.7006H271.8C273.2 22.5006 274.5 23.3005 275.1 24.5005L285.6 48.5005C285.8 48.8005 285.8 49.0005 286 49.0005C286.2 49.0005 286.4 48.9005 286.4 48.5005L291 23.9005C291.2 23.2005 291.7 22.8005 292.4 22.8005H299.6C300.1 22.8005 300.6 23.2006 300.6 23.7006H300.8Z" fill="#004E8E"/>
<path d="M338.4 65.8H330C329.4 65.8 329 65.4 329 64.8C329 64.8 329 64.8 329 64.7L328.6 55.2H316L312 64.7C311.8 65.3 311.2 65.7 310.6 65.8H301.8C301.3 65.8 300.9 65.5 300.9 65.1C300.9 64.9 301 64.7 301 64.6L316.8 28.5C319.2 22.9 323.9 22 328.2 22C332.5 22 336.7 22.9 337.1 28.5L339.5 64.6V64.7C339.6 65.3 339.1 65.8 338.4 65.8ZM327.5 31.2C327.5 30.6 327.4 30.3 326.9 30.3C326.4 30.3 326.1 30.6 325.9 31.2L319.2 47.3H328.3L327.5 31.2Z" fill="#004E8E"/>
</g>
<defs>
<linearGradient id="paint0_linear_30_585" x1="26.809" y1="57.6963" x2="102.793" y2="3.79679" gradientUnits="userSpaceOnUse">
<stop stop-color="#004E90"/>
<stop offset="0.23" stop-color="#006789"/>
<stop offset="0.5" stop-color="#007C82"/>
<stop offset="0.76" stop-color="#00897E"/>
<stop offset="1" stop-color="#008D7D"/>
</linearGradient>
<clipPath id="clip0_30_585">
<rect width="339.6" height="88.5" fill="white"/>
</clipPath>
</defs>
</svg>
