<svg width="340" height="89" viewBox="0 0 340 89" fill="none" xmlns="http://www.w3.org/2000/svg">
<g clip-path="url(#clip0_30_584)">
<path d="M-6.18398e-05 46.3C1.09994 68.7 19.9999 87 43.3999 88.4C46.9999 88.6 50.4999 88.5 54.0999 87.9C55.8999 87.8 57.1999 86.3 57.0999 84.5C57.0999 84.2 56.9999 84 56.8999 83.7C53.4999 74.2 46.6999 55.2 45.4999 50.3C45.4999 50.3 43.3999 44.2 52.0999 41.2C52.0999 41.2 57.4999 39.6 58.1999 34.5C58.7999 30.2 54.9999 28.9 50.2999 28.9L45.3999 29C44.3999 29 43.4999 29.7 43.2999 30.7L36.9999 65.3C36.5999 67.2 34.8999 68.5 32.8999 68.5H24.7999C23.1999 68.7 21.6999 67.5 21.4999 65.8C21.4999 65.5 21.4999 65.1 21.5999 64.8L29.3999 21.8C30.0999 18.2 31.4999 17.3 34.8999 16.9C40.4999 16.3 46.0999 16 51.6999 15.9C66.3999 15.9 75.7999 20.9 73.4999 34L73.2999 35.2C72.0999 41.6 68.1999 45.3 63.6999 48.4C61.9999 49.3 61.1999 51.3 61.6999 53.1L70.3999 76.7C71.1999 78.6 73.3999 79.5 75.1999 78.7C75.4999 78.6 75.7999 78.4 76.0999 78.2C87.2999 69.6 93.5999 56.2 92.9999 42.1C91.9999 20.5 71.7999 1.2 49.0999 0C48.2999 0 47.3999 0 46.5999 0C20.0999 0 -1.10006 20.9 -6.18398e-05 46.3Z" fill="white"/>
<mask id="mask0_30_584" style="mask-type:luminance" maskUnits="userSpaceOnUse" x="-1" y="0" width="95" height="89">
<path d="M-6.18398e-05 46.3C1.09994 68.7 19.9999 87 43.3999 88.4C46.9999 88.6 50.4999 88.5 54.0999 87.9C55.8999 87.8 57.1999 86.3 57.0999 84.5C57.0999 84.2 56.9999 84 56.8999 83.7C53.4999 74.2 46.6999 55.2 45.4999 50.3C45.4999 50.3 43.3999 44.2 52.0999 41.2C52.0999 41.2 57.4999 39.6 58.1999 34.5C58.7999 30.2 54.9999 28.9 50.2999 28.9L45.3999 29C44.3999 29 43.4999 29.7 43.2999 30.7L36.9999 65.3C36.5999 67.2 34.8999 68.5 32.8999 68.5H24.7999C23.1999 68.7 21.6999 67.5 21.4999 65.8C21.4999 65.5 21.4999 65.1 21.5999 64.8L29.3999 21.8C30.0999 18.2 31.4999 17.3 34.8999 16.9C40.4999 16.3 46.0999 16 51.6999 15.9C66.3999 15.9 75.7999 20.9 73.4999 34L73.2999 35.2C72.0999 41.6 68.1999 45.3 63.6999 48.4C61.9999 49.3 61.1999 51.3 61.6999 53.1L70.3999 76.7C71.1999 78.6 73.3999 79.5 75.1999 78.7C75.4999 78.6 75.7999 78.4 76.0999 78.2C87.2999 69.6 93.5999 56.2 92.9999 42.1C91.9999 20.5 71.7999 1.2 49.0999 0C48.2999 0 47.3999 0 46.5999 0C20.0999 0 -1.10006 20.9 -6.18398e-05 46.3Z" fill="white"/>
</mask>
<g mask="url(#mask0_30_584)">
<path d="M-45.0996 29.7004L62.0004 -42.5996L137.7 58.9004L30.6004 131.2L-45.0996 29.7004Z" fill="white"/>
</g>
<path d="M137.3 48.1008L143.5 64.5008C143.6 64.6008 143.6 64.8008 143.6 65.0008C143.6 65.5008 143.2 65.9008 142.5 65.9008H133.6C132.9 65.9008 132.9 65.3008 132.6 64.7008L127.1 50.0008C126.9 50.0008 126.5 50.0008 126 50.0008C124.7 50.0008 122.8 49.9008 121.6 49.9008L119 64.6008C118.8 65.3008 118.2 65.8008 117.5 65.8008H109.5C109 65.8008 108.6 65.5008 108.5 65.0008V64.9008V64.7008L115.7 25.7008C116.1 23.7008 117 23.2008 118.9 22.9008C123.1 22.4008 127.3 22.1008 131.5 22.2008C140.7 22.2008 147.5 25.5008 147.5 33.3008C147.6 40.1008 144.5 45.8008 137.3 48.1008ZM130 30.5008C129.1 30.5008 126 30.6008 125.2 30.7008L123.1 41.8008C123.8 41.8008 126.7 41.9008 127.4 41.9008C133.4 41.9008 137.1 40.5008 137.1 34.4008C137.2 31.5008 134.8 30.5008 130 30.5008Z" fill="white"/>
<path d="M192.099 40.7992L190.799 47.6992C188.299 61.2992 180.699 66.3992 169.199 66.3992C160.799 66.3992 154.199 61.6992 154.199 52.1992C154.199 50.6992 154.299 49.1992 154.599 47.7992L155.899 40.8992C158.599 26.4992 167.299 22.1992 177.499 22.1992C185.699 22.1992 192.499 26.3992 192.499 36.2992C192.599 37.6992 192.499 39.1992 192.099 40.7992ZM175.899 30.7992C170.799 30.7992 167.899 33.4992 166.499 40.6992L165.199 47.5992C164.899 48.8992 164.799 50.2992 164.799 51.6992C164.799 56.0992 166.899 57.5992 170.899 57.5992C175.999 57.5992 178.999 54.5992 180.299 47.6992L181.599 40.7992C181.799 39.4992 181.999 38.1992 181.999 36.9992C182.099 32.4992 179.999 30.7992 175.899 30.7992Z" fill="white"/>
<path d="M233 24.099L232 29.499C231.8 30.199 231.3 30.599 230.6 30.699H218.2C215.3 30.699 214.1 31.599 213.5 34.699L212.5 39.899H228.3C228.8 39.899 229.2 40.199 229.3 40.799V40.899V40.999L228.3 46.499C228.1 47.199 227.5 47.699 226.8 47.699H211L207.9 64.699C207.7 65.399 207.1 65.899 206.4 65.899H198.4C197.9 65.899 197.5 65.599 197.4 64.999V64.899V64.699L203 34.599C205 23.599 211.7 22.099 220.2 22.099C224.1 21.999 228 22.299 231.9 22.899C232.6 22.999 233 23.199 233 23.799C233 23.899 233 23.999 233 24.099Z" fill="white"/>
<path d="M253.7 23.6995L246.1 64.5995C246 65.2995 245.4 65.6995 244.7 65.7995H236.5C236 65.7995 235.7 65.4995 235.6 64.9995V64.8995V64.5995L243.2 23.6995C243.3 23.0995 243.8 22.5995 244.5 22.5995H252.7C253.2 22.4995 253.6 22.8995 253.7 23.2995V23.3995V23.6995Z" fill="white"/>
<path d="M300.7 23.7009L293.3 63.6009C293 64.9009 291.9 65.8009 290.6 65.8009H285.5C284.1 66.0009 282.7 65.3009 282.1 64.0009L272 41.1009C271.8 40.8009 271.7 40.6009 271.5 40.6009C271.3 40.6009 271.2 40.7009 271.1 41.1009L266.8 64.7009C266.6 65.4009 266 65.9009 265.3 65.9009H258.1C257.6 65.9009 257.1 65.5009 257.1 65.0009V64.9009V64.7009L264.4 24.9009C264.7 23.6009 265.8 22.7009 267.2 22.7009H271.8C273.2 22.6009 274.5 23.3009 275.1 24.5009L285.6 48.4009C285.8 48.7009 285.8 48.9009 286 48.9009C286.2 48.9009 286.4 48.8009 286.4 48.4009L291 23.8009C291.2 23.2009 291.7 22.7009 292.4 22.7009H299.6C300.1 22.7009 300.6 23.1009 300.6 23.6009L300.7 23.7009Z" fill="white"/>
<path d="M338.3 65.7992H329.9C329.3 65.7992 328.9 65.3992 328.9 64.7992L328.5 55.3992H316L312 64.8992C311.8 65.4992 311.2 65.8992 310.6 65.8992H301.9C301.3 65.8992 301 65.5992 301 65.1992C301 64.9992 301.1 64.8992 301.1 64.6992L316.9 28.5992C319.4 22.9992 324.1 22.1992 328.3 22.1992C332.5 22.1992 336.8 23.0992 337.2 28.5992L339.6 64.5992C339.5 65.2992 338.9 65.7992 338.3 65.7992ZM327.5 31.1992C327.5 30.5992 327.5 30.2992 326.9 30.2992C326.3 30.2992 326.1 30.5992 325.9 31.1992L319.2 47.2992H328.3L327.5 31.1992Z" fill="white"/>
</g>
<defs>
<clipPath id="clip0_30_584">
<rect width="339.6" height="88.5" fill="white"/>
</clipPath>
</defs>
</svg>
