<svg width="73" height="69" viewBox="0 0 73 69" fill="none" xmlns="http://www.w3.org/2000/svg">
<path d="M34.1012 68.9232C15.6931 67.8087 0.87879 53.5299 0.0392053 36.1179C-0.918078 16.3676 15.7794 0 36.5101 0C37.1614 0 37.8205 0 38.4482 0.0467646C56.3777 0.935292 72.1885 16.0325 72.9732 32.9457C73.1893 38.3446 72.0969 43.7162 69.7879 48.6085C67.4789 53.5007 64.0209 57.7706 59.7046 61.059C59.3485 61.3323 58.9336 61.5202 58.4924 61.6079C58.0511 61.6957 57.5953 61.6808 57.1608 61.5646C56.7262 61.4484 56.3246 61.2339 55.9873 60.938C55.65 60.6421 55.3861 60.2727 55.2164 59.8587L48.382 41.4646C47.872 40.1318 48.6488 38.6977 49.9513 37.7936C53.4744 35.3385 56.5738 32.4858 57.4919 27.4742L57.6645 26.5389C59.3986 16.2897 52.015 12.3926 40.5119 12.3926C36.1018 12.4221 31.6964 12.6823 27.3139 13.172C24.6382 13.6241 23.5319 14.2632 23.014 17.0691L16.9094 50.5837C16.8363 50.944 16.8477 51.3161 16.9428 51.6713C17.0378 52.0265 17.214 52.3552 17.4576 52.6318C17.7012 52.9084 18.0056 53.1256 18.3474 53.2665C18.6891 53.4074 19.0589 53.4682 19.4281 53.4442H25.8937C26.6248 53.4288 27.3299 53.1723 27.8981 52.7151C28.4663 52.2579 28.8653 51.626 29.0323 50.9189L33.9207 23.8967C33.9989 23.5216 34.2029 23.1839 34.4994 22.939C34.7958 22.694 35.1673 22.5563 35.5528 22.5483L39.3584 22.4704C43.0856 22.4704 46.0908 23.5148 45.5886 26.8585C45.055 30.8802 40.8179 32.1195 40.8179 32.1195C33.9364 34.4733 35.6235 39.2355 35.6235 39.2355C36.5886 43.0312 41.8693 57.879 44.5607 65.2834C44.6773 65.6343 44.7138 66.0066 44.6678 66.3733C44.6218 66.74 44.4943 67.092 44.2946 67.4038C44.0948 67.7156 43.8278 67.9793 43.5129 68.1761C43.198 68.3728 42.8429 68.4976 42.4735 68.5413C39.7051 68.9717 36.8977 69.0997 34.1012 68.9232Z" fill="white"/>
</svg>
